<svg width="287" height="86" viewBox="0 0 287 86" fill="none" xmlns="http://www.w3.org/2000/svg">
<path d="M1.748 22.486H13.892C15.824 22.486 17.3113 22.9307 18.354 23.82C19.4273 24.6787 20.148 25.9053 20.516 27.5C20.884 29.064 21.068 31.0727 21.068 33.526C21.068 35.7647 20.7767 37.5127 20.194 38.77C19.6113 40.0273 18.5993 40.9013 17.158 41.392C18.354 41.6373 19.2127 42.2353 19.734 43.186C20.286 44.1367 20.562 45.4247 20.562 47.05L20.47 62H12.742V46.544C12.742 45.44 12.5273 44.7347 12.098 44.428C11.6687 44.1213 10.8867 43.968 9.752 43.968V62H1.748V22.486ZM11.684 37.114C12.788 37.114 13.34 35.918 13.34 33.526C13.34 32.4833 13.294 31.7013 13.202 31.18C13.11 30.6587 12.9413 30.306 12.696 30.122C12.4507 29.9073 12.098 29.8 11.638 29.8H9.798V37.114H11.684ZM33.7899 62.368C27.0739 62.368 23.7159 58.8873 23.7159 51.926V38.402C23.7159 35.2127 24.6052 32.6827 26.3839 30.812C28.1932 28.9107 30.6619 27.96 33.7899 27.96C36.9179 27.96 39.3712 28.9107 41.1499 30.812C42.9592 32.6827 43.8639 35.2127 43.8639 38.402V51.926C43.8639 58.8873 40.5059 62.368 33.7899 62.368ZM33.7899 56.158C34.4339 56.158 34.9092 55.928 35.2159 55.468C35.5225 55.008 35.6759 54.3793 35.6759 53.582V37.114C35.6759 35.1513 35.0472 34.17 33.7899 34.17C32.5325 34.17 31.9039 35.1513 31.9039 37.114V53.582C31.9039 54.3793 32.0572 55.008 32.3639 55.468C32.6705 55.928 33.1459 56.158 33.7899 56.158ZM60.3351 62.368C58.1271 62.368 56.5478 61.0493 55.5971 58.412V62H47.3171V22.256H55.5971V29.938C56.8851 28.6193 58.3878 27.96 60.1051 27.96C62.7118 27.96 64.5824 28.742 65.7171 30.306C66.8518 31.8393 67.4191 34.0627 67.4191 36.976V53.214C67.4191 55.974 66.8364 58.1973 65.6711 59.884C64.5058 61.54 62.7271 62.368 60.3351 62.368ZM57.6211 56.112C58.1731 56.112 58.5564 55.9433 58.7711 55.606C59.0164 55.238 59.1544 54.7933 59.1851 54.272C59.2464 53.72 59.2771 52.8767 59.2771 51.742V37.712C59.2771 36.516 59.1698 35.6267 58.9551 35.044C58.7404 34.4613 58.2804 34.17 57.5751 34.17C56.8084 34.17 56.2871 34.4613 56.0111 35.044C55.7351 35.6267 55.5971 36.4853 55.5971 37.62V51.742C55.5971 53.214 55.7198 54.318 55.9651 55.054C56.2104 55.7593 56.7624 56.112 57.6211 56.112ZM80.62 62.368C73.904 62.368 70.546 58.8873 70.546 51.926V38.402C70.546 35.2127 71.4354 32.6827 73.214 30.812C75.0234 28.9107 77.492 27.96 80.62 27.96C83.748 27.96 86.2014 28.9107 87.98 30.812C89.7894 32.6827 90.694 35.2127 90.694 38.402V51.926C90.694 58.8873 87.336 62.368 80.62 62.368ZM80.62 56.158C81.264 56.158 81.7394 55.928 82.046 55.468C82.3527 55.008 82.506 54.3793 82.506 53.582V37.114C82.506 35.1513 81.8774 34.17 80.62 34.17C79.3627 34.17 78.734 35.1513 78.734 37.114V53.582C78.734 54.3793 78.8874 55.008 79.194 55.468C79.5007 55.928 79.976 56.158 80.62 56.158ZM101.093 62.368C98.9773 62.368 97.5206 61.9233 96.7233 61.034C95.9259 60.1447 95.5273 58.7187 95.5273 56.756V35.734H93.2733V29.616H95.5273V22.486H103.347V29.616H105.647V35.734H103.347V54.64C103.347 55.2227 103.393 55.652 103.485 55.928C103.577 56.204 103.823 56.342 104.221 56.342C104.528 56.342 104.819 56.3267 105.095 56.296C105.371 56.2653 105.555 56.25 105.647 56.25V61.77C105.187 61.8927 104.513 62.0153 103.623 62.138C102.765 62.2913 101.921 62.368 101.093 62.368ZM129.432 62.368C126.243 62.368 123.82 61.402 122.164 59.47C120.508 57.5073 119.68 54.7627 119.68 51.236V32.422C119.68 29.018 120.508 26.4573 122.164 24.74C123.82 22.992 126.243 22.118 129.432 22.118C132.621 22.118 135.044 22.992 136.7 24.74C138.356 26.4573 139.184 29.018 139.184 32.422V51.236C139.184 54.7933 138.356 57.538 136.7 59.47C135.044 61.402 132.621 62.368 129.432 62.368ZM129.432 55.1C130.137 55.1 130.613 54.7933 130.858 54.18C131.103 53.5667 131.226 52.708 131.226 51.604V32.284C131.226 31.4253 131.103 30.7353 130.858 30.214C130.643 29.662 130.183 29.386 129.478 29.386C128.159 29.386 127.5 30.3827 127.5 32.376V51.65C127.5 52.7847 127.638 53.6433 127.914 54.226C128.19 54.8087 128.696 55.1 129.432 55.1ZM155.713 62.368C153.505 62.368 151.926 61.0493 150.975 58.412V62H142.695V22.256H150.975V29.938C152.263 28.6193 153.766 27.96 155.483 27.96C158.09 27.96 159.961 28.742 161.095 30.306C162.23 31.8393 162.797 34.0627 162.797 36.976V53.214C162.797 55.974 162.215 58.1973 161.049 59.884C159.884 61.54 158.105 62.368 155.713 62.368ZM152.999 56.112C153.551 56.112 153.935 55.9433 154.149 55.606C154.395 55.238 154.533 54.7933 154.563 54.272C154.625 53.72 154.655 52.8767 154.655 51.742V37.712C154.655 36.516 154.548 35.6267 154.333 35.044C154.119 34.4613 153.659 34.17 152.953 34.17C152.187 34.17 151.665 34.4613 151.389 35.044C151.113 35.6267 150.975 36.4853 150.975 37.62V51.742C150.975 53.214 151.098 54.318 151.343 55.054C151.589 55.7593 152.141 56.112 152.999 56.112ZM175.446 62.368C168.791 62.368 165.464 58.9947 165.464 52.248L165.51 49.58H173.56L173.606 53.536C173.606 54.3333 173.759 54.9467 174.066 55.376C174.373 55.7747 174.879 55.974 175.584 55.974C176.657 55.974 177.194 55.1 177.194 53.352C177.194 52.064 176.933 51.052 176.412 50.316C175.921 49.58 175.124 48.798 174.02 47.97L169.742 44.658C168.27 43.5233 167.212 42.358 166.568 41.162C165.924 39.9353 165.602 38.218 165.602 36.01C165.602 34.2927 166.047 32.836 166.936 31.64C167.856 30.4133 169.067 29.4933 170.57 28.88C172.073 28.2667 173.744 27.96 175.584 27.96C182.116 27.96 185.382 31.2107 185.382 37.712V38.356H177.056V37.068C177.056 36.2707 176.918 35.596 176.642 35.044C176.397 34.4613 175.967 34.17 175.354 34.17C174.802 34.17 174.373 34.3387 174.066 34.676C173.79 34.9827 173.652 35.412 173.652 35.964C173.652 37.1907 174.127 38.1413 175.078 38.816L180.046 42.45C181.825 43.7687 183.189 45.21 184.14 46.774C185.091 48.3073 185.566 50.2547 185.566 52.616C185.566 55.744 184.677 58.1513 182.898 59.838C181.119 61.5247 178.635 62.368 175.446 62.368ZM197.922 62.368C194.457 62.368 191.973 61.4173 190.47 59.516C188.968 57.6147 188.216 54.778 188.216 51.006V37.482C188.216 34.3847 189.106 32.0233 190.884 30.398C192.663 28.7727 195.147 27.96 198.336 27.96C204.807 27.96 208.042 31.134 208.042 37.482V39.92C208.042 42.3733 208.012 44.3667 207.95 45.9H196.266V52.432C196.266 53.5973 196.389 54.5173 196.634 55.192C196.88 55.836 197.401 56.158 198.198 56.158C198.812 56.158 199.241 55.974 199.486 55.606C199.762 55.238 199.916 54.824 199.946 54.364C200.008 53.8733 200.038 53.168 200.038 52.248V48.982H208.042V50.914C208.042 54.8393 207.276 57.7373 205.742 59.608C204.24 61.448 201.633 62.368 197.922 62.368ZM200.038 41.898V37.574C200.038 35.1513 199.44 33.94 198.244 33.94C196.895 33.94 196.22 35.1513 196.22 37.574V41.898H200.038ZM211.413 28.328H219.463V32.054C219.862 30.7353 220.552 29.7233 221.533 29.018C222.545 28.282 223.787 27.914 225.259 27.914V34.63C224.124 34.63 222.867 34.7987 221.487 35.136C220.138 35.4427 219.463 35.8107 219.463 36.24V62H211.413V28.328ZM231.964 62L226.582 28.328H234.632L236.288 45.348L236.564 50.822L236.886 45.302L238.726 28.328H246.776L241.302 62H231.964ZM258.779 62.368C255.313 62.368 252.829 61.4173 251.327 59.516C249.824 57.6147 249.073 54.778 249.073 51.006V37.482C249.073 34.3847 249.962 32.0233 251.741 30.398C253.519 28.7727 256.003 27.96 259.193 27.96C265.663 27.96 268.899 31.134 268.899 37.482V39.92C268.899 42.3733 268.868 44.3667 268.807 45.9H257.123V52.432C257.123 53.5973 257.245 54.5173 257.491 55.192C257.736 55.836 258.257 56.158 259.055 56.158C259.668 56.158 260.097 55.974 260.343 55.606C260.619 55.238 260.772 54.824 260.803 54.364C260.864 53.8733 260.895 53.168 260.895 52.248V48.982H268.899V50.914C268.899 54.8393 268.132 57.7373 266.599 59.608C265.096 61.448 262.489 62.368 258.779 62.368ZM260.895 41.898V37.574C260.895 35.1513 260.297 33.94 259.101 33.94C257.751 33.94 257.077 35.1513 257.077 37.574V41.898H260.895ZM272.27 28.328H280.32V32.054C280.718 30.7353 281.408 29.7233 282.39 29.018C283.402 28.282 284.644 27.914 286.116 27.914V34.63C284.981 34.63 283.724 34.7987 282.344 35.136C280.994 35.4427 280.32 35.8107 280.32 36.24V62H272.27V28.328Z" fill="white"/>
<rect x="22" y="22" width="23" height="4" fill="#6273CD"/>
<rect x="58" y="22" width="35" height="4" fill="#FF4848"/>
<rect x="154" y="22" width="132" height="4" fill="#6273CD"/>
</svg>
