<svg width="12" height="12" viewBox="0 0 12 12" fill="none" xmlns="http://www.w3.org/2000/svg">
<path d="M5.08906 1.01147C5.44379 0.228188 6.55621 0.228186 6.91094 1.01147L6.99075 1.18769C7.22217 1.6987 7.82858 1.91942 8.33433 1.67672L8.50875 1.59302C9.28397 1.22101 10.1361 1.93606 9.90439 2.7641L9.85225 2.9504C9.70106 3.49061 10.0237 4.04949 10.5672 4.18866L10.7546 4.23665C11.5875 4.44997 11.7807 5.5455 11.0709 6.03085L10.9112 6.14005C10.4482 6.45669 10.3361 7.09222 10.663 7.54814L10.7757 7.70537C11.2766 8.40421 10.7204 9.3676 9.86473 9.28316L9.6722 9.26417C9.11395 9.20908 8.61959 9.62389 8.5769 10.1832L8.56218 10.3761C8.49675 11.2335 7.45141 11.614 6.85018 10.9992L6.71491 10.8609C6.32267 10.4599 5.67733 10.4599 5.28509 10.8609L5.14983 10.9992C4.54859 11.614 3.50325 11.2335 3.43782 10.3761L3.4231 10.1832C3.38041 9.62389 2.88605 9.20908 2.3278 9.26417L2.13527 9.28316C1.27957 9.3676 0.723357 8.40421 1.22433 7.70537L1.33705 7.54814C1.66388 7.09222 1.55182 6.45669 1.08876 6.14005L0.929072 6.03085C0.219289 5.5455 0.412459 4.44997 1.24544 4.23665L1.43285 4.18866C1.97628 4.04949 2.29894 3.49061 2.14775 2.9504L2.09561 2.7641C1.86387 1.93606 2.71603 1.22101 3.49125 1.59302L3.66567 1.67672C4.17142 1.91942 4.77783 1.6987 5.00925 1.1877L5.08906 1.01147Z" fill="#01B209"/>
</svg>
