<svg width="132" height="132" viewBox="0 0 132 132" fill="none" xmlns="http://www.w3.org/2000/svg">
<circle cx="66" cy="66" r="61" stroke="#01B209" stroke-width="10"/>
<mask id="path-2-inside-1" fill="white">
<path d="M5.7699e-06 66C6.81769e-06 54.0147 3.26363 42.2556 9.44064 31.9847C15.6177 21.7138 24.4749 13.3188 35.0618 7.70055C45.6487 2.08231 57.5656 -0.547049 69.5337 0.0946601C81.5018 0.736369 93.0693 4.6249 102.995 11.343L97.3987 19.6106C88.9747 13.9087 79.1569 10.6084 68.9992 10.0638C58.8414 9.51914 48.7271 11.7508 39.7416 16.5192C30.7561 21.2876 23.2387 28.4127 17.996 37.13C12.7534 45.8473 9.98344 55.8276 9.98343 66L5.7699e-06 66Z"/>
</mask>
<path d="M5.7699e-06 66C6.81769e-06 54.0147 3.26363 42.2556 9.44064 31.9847C15.6177 21.7138 24.4749 13.3188 35.0618 7.70055C45.6487 2.08231 57.5656 -0.547049 69.5337 0.0946601C81.5018 0.736369 93.0693 4.6249 102.995 11.343L97.3987 19.6106C88.9747 13.9087 79.1569 10.6084 68.9992 10.0638C58.8414 9.51914 48.7271 11.7508 39.7416 16.5192C30.7561 21.2876 23.2387 28.4127 17.996 37.13C12.7534 45.8473 9.98344 55.8276 9.98343 66L5.7699e-06 66Z" stroke="#858585" stroke-width="20" mask="url(#path-2-inside-1)"/>
</svg>
