<svg width="27" height="26" viewBox="0 0 27 26" fill="none" xmlns="http://www.w3.org/2000/svg">
<path d="M0.00510872 13C0.00510875 15.5712 0.767545 18.0846 2.196 20.2224C3.62446 22.3603 5.65479 24.0265 8.03022 25.0104C10.4057 25.9944 13.0195 26.2518 15.5413 25.7502C18.063 25.2486 20.3794 24.0105 22.1975 22.1924C24.0156 20.3743 25.2537 18.0579 25.7553 15.5362C26.2569 13.0144 25.9995 10.4006 25.0155 8.02512C24.0316 5.64968 22.3654 3.61935 20.2275 2.19089C18.0897 0.762437 15.5763 -6.41731e-08 13.0051 0V13H0.00510872Z" fill="white"/>
<path d="M10.8942 0.314457C9.46358 0.314457 8.04694 0.596245 6.72519 1.14373C5.40344 1.69122 4.20247 2.49368 3.19085 3.50531C2.17922 4.51693 1.37676 5.7179 0.829273 7.03965C0.281787 8.3614 -5.1989e-07 9.77804 0 11.2087L10.8942 11.2087L10.8942 0.314457Z" fill="white"/>
</svg>
